<svg width="50" height="50" viewBox="0 0 50 50" fill="none" xmlns="http://www.w3.org/2000/svg">
<g clip-path="url(#clip0_27_373)">
<path d="M41.7152 16.2719C41.2594 15.8171 40.7084 15.4692 40.1019 15.2531C39.4954 15.0369 38.8486 14.958 38.2079 15.0221C34.1348 15.4158 20.4367 17.1119 15.1458 22.3969C12.6167 24.9328 11.117 28.316 10.9363 31.893C10.7556 35.4699 11.9067 38.987 14.1673 41.765L30.2965 25.6358C30.5715 25.3702 30.9399 25.2232 31.3223 25.2265C31.7046 25.2298 32.0704 25.3832 32.3408 25.6536C32.6112 25.924 32.7645 26.2897 32.7679 26.6721C32.7712 27.0545 32.6242 27.4228 32.3585 27.6979L16.2352 43.8271C19.0122 46.089 22.529 47.2415 26.1062 47.0619C29.6833 46.8822 33.0669 45.3832 35.6033 42.8544C40.9642 37.4921 42.6033 23.8362 42.981 19.7791C43.0428 19.1373 42.9613 18.4897 42.7424 17.8832C42.5235 17.2767 42.1726 16.7263 41.7152 16.2719ZM15.1458 42.8544C15.4939 43.2014 15.8551 43.5276 16.2294 43.8329L10.4835 49.5787C10.2078 49.8437 9.83894 49.9897 9.45652 49.9854C9.0741 49.981 8.7087 49.8266 8.43904 49.5554C8.16938 49.2842 8.01704 48.918 8.01484 48.5355C8.01264 48.1531 8.16076 47.7851 8.42729 47.5108L14.1731 41.765C14.4784 42.1383 14.8026 42.5014 15.1458 42.8544Z" fill="#43614F"/>
</g>
<path d="M33.5642 9.99428C33.3763 9.99534 33.19 9.96005 33.0161 9.89042C32.8422 9.8208 32.684 9.71821 32.5506 9.58854L26.0124 3.16668C25.8796 3.03554 25.7218 2.93146 25.5478 2.86043C25.3738 2.7894 25.1872 2.75283 24.9988 2.75283C24.8103 2.75283 24.6237 2.7894 24.4498 2.86043C24.2758 2.93146 24.1179 3.03554 23.9852 3.16668L17.447 9.58854C17.1782 9.85199 16.8136 10 16.4334 10C16.0532 10 15.6886 9.85199 15.4198 9.58854C15.151 9.32508 15 8.96776 15 8.59518C15 8.41069 15.0371 8.22802 15.1091 8.05758C15.1811 7.88713 15.2867 7.73227 15.4198 7.60182L21.9723 1.19395C22.786 0.427853 23.8705 0 24.9988 0C26.1271 0 27.2116 0.427853 28.0252 1.19395L34.5777 7.60182C34.7115 7.73188 34.8177 7.88662 34.8902 8.05712C34.9627 8.22761 35 8.41048 35 8.59518C35 8.77988 34.9627 8.96275 34.8902 9.13324C34.8177 9.30373 34.7115 9.45847 34.5777 9.58854C34.4443 9.71821 34.2861 9.8208 34.1122 9.89042C33.9383 9.96005 33.752 9.99534 33.5642 9.99428Z" fill="#43614F"/>
<defs>
<clipPath id="clip0_27_373">
<rect width="35" height="35" fill="white" transform="translate(8 15)"/>
</clipPath>
</defs>
</svg>
